# xmcd
#
# Track frame offsets:
#	150
#	16729
#	35058
#	50081
#	64063
#	77368
#	105529
#	119430
#	134415
#	155899
#
# Disc length: 2266 seconds
#
# Revision: 0
# Processed by: cddbd v1.5.2PL0 Copyright (c) Steve Scherf et al.
# Submitted via: audiograbber 1.83.01
#
DISCID=8408d80a
DTITLE=Kristin Diable - Extended Play
DYEAR=2009
DGENRE=Blues
TTITLE0=Poor Boy
TTITLE1=Lines on the Road
TTITLE2=What We Mean
TTITLE3=Holdin' On
TTITLE4=War Torn Town
TTITLE5=Gypsy Queen
TTITLE6=Minnesota
TTITLE7=Be My Husband
TTITLE8=Sister Sadie
TTITLE9=Holdin' On (Alternate Take)
EXTD=
EXTT0=
EXTT1=
EXTT2=
EXTT3=
EXTT4=
EXTT5=
EXTT6=
EXTT7=
EXTT8=
EXTT9=
PLAYORDER=
